<?xml version="1.0" encoding="utf-8"?>
<!-- Generator: Adobe Illustrator 25.2.3, SVG Export Plug-In . SVG Version: 6.00 Build 0)  -->
<svg version="1.1" id="_x34_" xmlns="http://www.w3.org/2000/svg" xmlns:xlink="http://www.w3.org/1999/xlink" x="0px" y="0px"
	 viewBox="0 0 850 815" style="enable-background:new 0 0 850 815;" xml:space="preserve">
<style type="text/css">
	.st0{fill:#FFFFFF;}
	.st1{fill:#F39B22;}
	.st2{fill:#444D63;}
	.st3{fill:#FFE06D;}
	.st4{fill:#FFFB69;}
</style>
<g>
	<path class="st0" d="M800.259,594.236c-0.876-1.54-2.532-3.323-5.61-3.903c-0.931-0.731-1.79-1.211-2.281-1.486
		c-0.93-0.512-1.983-1.005-2.951-1.388c-0.168-0.076-0.316-0.172-0.448-0.247c-0.413-0.233-0.784-0.435-1.096-0.581
		c-0.091-0.042-0.184-0.083-0.276-0.122c-3.262-1.381-8.862-4.722-13.969-9.653c-5.64-5.332-10.239-12.138-12.558-15.845
		c-3.061-4.69-6.828-11.909-9.85-18.879c-1.892-4.293-3.585-8.586-5.079-12.374c-1.084-2.751-2.047-5.185-2.933-7.23l-0.239-0.535
		c-1.087-2.461-2.282-4.933-3.937-6.872c-0.479-2.108-1.844-3.92-3.76-4.958c-1.116-0.603-2.349-0.907-3.585-0.907
		c-1.04,0-2.081,0.216-3.056,0.647c-1.345,0.599-2.69,1.186-4.037,1.77c-0.168-0.007-0.337-0.009-0.507-0.009
		c-2.589,0-5.348,0.726-8.182,1.535c-0.456,0.13-0.852,0.245-1.155,0.318c-0.126,0.032-1.305,0.383-1.305,0.383
		c-5.155,1.559-12.947,3.913-21.01,4.629c-2.008,0.201-4.146,0.304-6.359,0.304c-5.563,0-11.653-0.662-16.813-1.839
		c-6.476-1.382-15.171-4.69-22.257-8.485c-9.123-4.703-15.911-10.67-17.774-12.387c-0.121-0.11-0.309-0.269-0.436-0.373
		c-0.285-0.23-0.641-0.578-1.05-0.961c-0.807-0.757-1.726-1.613-2.658-2.38c-1.552-1.412-3.815-3.143-6.707-3.557
		c-1.183-0.471-2.504-0.721-3.913-0.721c-2.639,0-5.244,0.848-7.146,1.466c-0.344,0.112-0.644,0.216-0.867,0.277
		c-0.154,0.039-0.306,0.083-0.457,0.129c-2.434,0.79-9.838,3.188-17.609,4.007c-2.613,0.297-5.396,0.446-8.271,0.446
		c-3.9,0-7.783-0.282-11.009-0.802c-6.293-0.948-13.282-2.883-18.751-5.202c-4.352-1.805-8.123-3.878-10.84-5.523
		c-0.525-4.652-1.447-12.139-2.525-17.94l-0.18-0.932c-0.464-2.422-0.99-5.166-1.952-8.596c-0.948-3.268-2.254-6.804-4.014-10.856
		c-3.651-8.246-6.775-14.128-7.648-15.741c-0.477-0.878-1.032-1.866-1.683-2.858c2.409-2.937,4.834-6.12,7.169-9.418
		c6.215-8.856,11.035-17.925,14.313-26.925c3.862-10.445,5.84-22.013,5.57-32.433c-0.042-5.524-0.846-10.758-1.626-15.149
		c-0.027-0.152-0.059-0.302-0.095-0.451l-1.516-6.257c-0.417-1.65-0.881-3.141-1.336-4.59l-0.376-1.207
		c-5.251-16.936-13.86-35.973-22.993-50.855c-2.858-4.766-5.966-9.263-8.969-12.985c-2.973-3.712-6.276-7.37-9.828-10.883
		c-6.251-6.154-12.036-11.023-16.262-14.579l-1.605-1.339c-1.961-1.635-4.736-3.943-7.271-5.909
		c-0.597-0.456-1.174-0.893-1.736-1.305c0.37-1.164,0.784-2.446,1.235-3.817c0.624-0.608,1.25-1.283,1.871-2.011
		c2.506-2.895,4.866-6.762,6.052-9.054c2.664-4.897,4.977-11.553,6.678-19.217c1.559-6.875,2.573-15.003,3.015-24.173
		c0.325-7.014,0.313-14.693-0.041-24.209l-0.118-2.908c-0.107-2.768-0.212-5.418-0.417-8.042l-0.37-5.004
		c-0.008-0.113-0.572-4.872-0.572-4.872c-1.657-14.639-6.59-31.508-13.168-45.068c-7.496-15.789-17.945-28.754-25.378-35.762
		l-0.734-0.664c-1.72-1.562-4.321-3.923-7.066-5.767c-3.815-2.575-6.433-3.624-9.032-3.624c-2.154,0-4.135,0.78-5.63,2.121
		c-1.281-0.373-2.576-0.697-3.882-0.971c-1.902-1.848-4.229-2.716-5.187-3.074c-0.182-0.069-0.366-0.128-0.552-0.182
		c-1.477-0.426-2.982-0.659-4.394-0.85c-0.776-0.091-1.515-0.12-2.19-0.12l-1.448,0.022c-4.536,0.089-9.576,1.341-14.097,3.484
		c-4.62,2.113-9.375,5.296-13.724,9.177c-6.415,5.676-12.498,13.212-18.079,22.406c-3.531,5.815-7.005,12.793-9.722,19.443
		c-1.036-2.422-2.135-4.798-3.286-7.105c-0.989-2.015-2.033-3.96-3.119-5.919c-0.043-0.076-1.81-3.025-1.81-3.025
		c-0.075-0.125-0.156-0.25-0.24-0.373l-1.934-2.822c-2.493-3.437-5.369-6.723-8.819-10.062c-4.967-4.764-9.529-8.282-13.193-11.109
		l-1.683-1.302l-1.707-1.299c-1.647-1.258-3.752-2.866-5.718-4.281c-3.358-2.378-5.985-4.062-9.216-4.062
		c-0.24,0-0.479,0.009-0.715,0.029c-1.481-0.329-3.029-0.495-4.626-0.495c-5.027,0-10.631,1.657-16.685,4.93
		c-2.253,0.008-4.478,0.562-7.122,1.393c-0.117,0.037-0.234,0.078-0.348,0.12c-5.137,1.896-10.007,5.311-11.813,6.657
		c-11.295,8.262-24.357,23.751-34.071,40.393c-5.884,9.979-10.305,18.834-13.503,27.041c-4.278,10.81-6.26,20.19-7.157,26.089
		c-1.35,8.346-1.645,18.055-0.833,27.316c0.815,9.721,2.75,20.149,5.585,30.113c4.989,17.895,14.046,36.472,23.106,47.408
		c1.033,1.378,2.537,3.116,4.187,4.857c-0.661,0.53-1.349,1.116-2.067,1.763c-3.56,3.18-7.075,7.267-8.393,8.841
		c-3.236,3.825-8.199,10.184-13.477,18.793c-1.116,1.834-2.336,3.962-3.52,6.144l-3.258,5.971
		c-2.664,4.891-4.823,8.961-6.794,12.811c-5.5,10.736-9.4,19.506-12.285,27.632c-2.003,5.727-3.272,10.115-4.114,14.24
		c-0.86,4.239-1.44,8.485-1.772,12.933c-0.83,10.192-0.167,19.773,1.954,28.416c2.141,9.081,6.207,18.763,12.426,29.6
		c5.709,9.957,11.095,17.974,16.478,24.53c3.26,3.945,6.663,7.487,10.035,10.464c-0.06,0.098-0.117,0.191-0.168,0.277
		c-3.663,5.671-6.007,14.375-6.846,17.869c-1.61,6.642-2.455,13.152-2.846,16.863c-4.212-2.158-7.717-4.354-9.846-5.69
		c-0.107-0.067-0.216-0.13-0.327-0.194c-0.294-0.164-0.676-0.41-1.117-0.687c-1.079-0.679-2.414-1.52-3.849-2.26
		c-2.132-1.17-3.989-1.807-5.759-1.969c-1.209-0.772-2.616-1.184-4.055-1.184c-0.305,0-0.613,0.02-0.919,0.056
		c-0.632,0.079-1.246,0.233-1.827,0.461c-1.849,0.449-3.666,1.457-5.436,2.989c-1.238,1.003-2.366,2.118-3.189,2.932
		c-0.296,0.292-0.551,0.552-0.754,0.73c-0.09,0.082-0.178,0.165-0.264,0.248c-1.954,1.924-4.109,4.006-6.579,6.142
		c-2.755,2.342-5.776,4.502-8.819,6.289c-6.613,3.997-14.06,6.014-18.572,6.543c-1.546,0.213-3.346,0.324-5.206,0.324
		c-4.839,0-9.855-0.73-14.283-2.109c-7.319-2.106-13.929-6.2-17.479-8.402c-0.118-0.074-0.25-0.15-0.371-0.216
		c-0.244-0.133-0.559-0.336-0.923-0.564c-0.925-0.576-2.181-1.361-3.52-2.032c-2.303-1.231-4.299-1.805-6.269-1.805
		c-0.412,0-0.817,0.027-1.215,0.079c-1.027-0.817-2.046-1.643-3.051-2.479c-1.396-1.16-3.122-1.75-4.853-1.75
		c-1.447,0-2.896,0.412-4.157,1.253c-1.801,1.201-2.959,3.07-3.28,5.105c-0.289,0.434-0.568,0.9-0.839,1.393
		c-0.886,1.535-1.605,3.143-2.132,4.318c-0.155,0.346-0.29,0.65-0.501,1.098l-0.803,1.817c-0.907,2.06-1.986,4.511-3.21,7.09
		c-1.847,3.789-3.782,7.282-5.779,10.428c-4.674,7.473-10.359,13.617-14.279,17.016c-3.804,3.486-10.577,8.411-18.275,11.827
		c-7.686,3.538-15.946,5.367-19.916,6.247c-0.118,0.024-0.235,0.054-0.351,0.086c-0.271,0.074-0.632,0.154-1.043,0.248
		c-1.154,0.268-2.723,0.628-4.263,1.135c-6.947,2.099-8.302,6.375-8.411,9.067c-0.174,1.717,0.177,3.445,1.029,4.992
		c1.302,2.358,3.399,3.697,5.447,4.54c0.106,0.946,0.263,1.942,0.472,2.986l0.144,0.749c0.017,0.098,0.679,3.182,0.679,3.182
		c0.939,4.303,2.225,10.197,2.962,16.233c0.81,6.237,1.085,13.779,0.739,20.11c-0.41,6.475-1.562,13.928-3.095,19.996
		c-1.471,6.032-3.502,11.838-4.985,16.079l-0.821,2.361c-0.038,0.111-0.338,1.065-0.338,1.065c-0.553,1.696-1.077,3.444-1.347,5.192
		c-1.663,1.952-2.244,4.656-1.446,7.167c0.955,3.006,3.68,5.097,6.83,5.244c1.426,0.066,2.992,0.285,4.668,0.654
		c0.905,0.594,1.772,1.067,2.429,1.427c0.22,0.12,0.417,0.224,0.532,0.292c0.203,0.13,0.412,0.25,0.626,0.36
		c3.579,1.834,8.234,4.372,12.559,7.79c5.528,4.27,9.605,9.527,10.818,11.161c2.609,3.374,5.563,8.691,7.544,13.595
		c1.775,4.31,2.955,8.748,3.903,12.313c0.245,0.922,0.471,1.77,0.726,2.677l0.137,0.493c0.723,2.663,2.909,10.724,10.381,10.842
		c0.223,0.017,0.447,0.024,0.67,0.024c0.78,0,2.1-0.118,3.549-0.752c1.518,0.569,3.414,0.927,5.781,0.927
		c0.891,0,1.754-0.044,2.46-0.081c0,0,0.837-0.037,0.941-0.042c0.938-0.061,2.002-0.142,3.168-0.233
		c3.536-0.272,7.936-0.61,12.483-0.61c0.574,0,1.149,0.007,1.802,0.02c5.538,0.057,12.166,0.804,17.717,1.993
		c4.116,0.891,10.743,2.815,17.045,5.568c4.408,1.888,8.633,4.149,12.027,5.963c1.379,0.738,2.622,1.403,3.848,2.023l0.486,0.243
		c0.381,0.194,0.836,0.421,1.344,0.661c0.071,0.106,0.144,0.209,0.22,0.311c1.441,2.177,4.087,4.085,8.035,4.085
		c2.594,0,5.124-0.775,7.704-1.641c0.333-0.111,0.622-0.211,0.844-0.275c0.098-0.03,1.055-0.348,1.055-0.348
		c4.38-1.473,10.998-3.699,17.993-4.86c4.095-0.731,8.772-1.117,13.524-1.117c2.264,0,4.525,0.09,6.484,0.257
		c6.326,0.585,13.655,2.248,19.687,4.479c6.307,2.249,12.074,5.348,16.283,7.608l2.236,1.189c3.048,1.633,6.053,3.097,9.304,3.097
		c1.349,0,2.643-0.267,3.81-0.777c1.218-0.333,2.486-0.885,3.874-1.68c1.393-0.752,2.669-1.596,3.699-2.278
		c0.4-0.265,0.747-0.503,1.014-0.66c0.114-0.066,0.225-0.135,0.335-0.208c3.848-2.538,11.009-7.265,19.041-10.072
		c6.027-2.248,13.493-3.592,19.97-3.592c0.505,0,0.992,0.01,1.547,0.03c5.22,0.13,13.531,1.478,21.35,4.933
		c7.715,3.219,14.621,8.349,18.331,11.104c0.105,0.078,0.212,0.155,0.321,0.226c0.25,0.166,0.569,0.409,0.937,0.684
		c0.283,1.834,1.138,3.322,2.131,4.416c1.644,2.049,4.15,3.234,6.975,3.234c3.416,0,6.7-1.675,10.333-3.695
		c0.38-0.211,0.712-0.397,1.156-0.63l0.821-0.453c4.804-2.65,12.065-6.656,20.007-9.596c7.114-2.717,15.859-4.855,23.353-5.718
		c2.327-0.257,6.098-0.561,10.842-0.561c4.68,0,9.125,0.294,13.295,0.885c8.778,1.147,17.248,3.692,22.308,5.212
		c0.095,0.03,0.19,0.056,0.286,0.082c0.292,0.073,0.672,0.191,1.109,0.321c2.834,0.843,5.596,1.599,8.224,1.599
		c2.267,0,3.991-0.581,5.277-1.344c1.565-0.547,3.026-1.231,4.084-1.728c0.321-0.15,1.888-0.873,1.888-0.873
		c4.275-2.008,10.734-5.043,17.688-7.02c6.128-1.821,13.736-2.998,20.271-3.143l0.734-0.005c3.104,0,11.242,0.238,19.802,2.471
		c6.954,1.724,13.524,4.551,17.871,6.421c0,0,1.532,0.647,1.864,0.792c2.911,1.26,5.767,2.393,8.712,2.393
		c0.706,0,1.39-0.069,2.047-0.201c1.139,0.382,2.45,0.602,3.943,0.602c2.626,0,5.323-0.652,6.755-1.003
		c1.78-0.37,3.96-0.922,6.411-1.547c3.7-0.944,7.893-2.016,12.264-2.814c6.092-1.165,13.269-1.885,19.314-1.93
		c0.534-0.012,1.093-0.016,1.674-0.016c5.68,0,11.957,0.571,17.292,1.579c6.914,1.238,13.435,3.356,17.331,4.624
		c0.137,0.044,2.098,0.571,2.098,0.571c1.134,0.351,2.156,0.608,3.154,0.789c1.021,0.181,1.95,0.267,2.838,0.267
		c1.724,0,3.202-0.348,4.443-0.919c3.154-0.601,5.351-2.719,6.259-3.641c0.85-0.799,1.671-1.681,2.364-2.435
		c0.268-0.292,0.5-0.552,0.683-0.731c0.144-0.137,0.282-0.279,0.414-0.427c1.318-1.466,6.154-6.525,13.158-10.108
		c7.582-4.004,15.866-5.828,18.386-6.324c5.53-1.214,13.339-2.047,20.426-2.177c0.94-0.022,1.876-0.031,2.803-0.031
		c4.883,0,9.58,0.284,13.355,0.512c1.404,0.083,2.678,0.162,3.791,0.216c0.119,0.005,0.942,0.02,1.283,0.031
		c0.656,0.023,1.415,0.047,2.197,0.047c5.543,0,8.633-1.652,10.349-3.6c1.847-1.53,3.448-4.276,3.765-9.162
		c0.156-2.192,0.191-4.575,0.212-5.997l0.005-0.328c0.189-9.692,0.845-18.011,2.019-25.511c1.29-8.846,3.56-18.962,6.083-27.097
		c1.298-4.266,4.891-15.275,10.223-25.418c4.38-8.582,9.811-15.898,13.572-20.041l1.56-1.805c0.876-0.924,1.663-1.827,2.344-2.685
		c4.727-5.387,4.091-9.528,2.784-12.011C800.835,595.356,800.506,594.667,800.259,594.236z"/>
	<path class="st0" d="M96.865,388.948c0.183-0.76,0.373-1.589,0.574-2.466c0.752-3.273,1.686-7.344,3.094-11.328
		c1.833-5.457,4.711-10.756,6.872-14.02c2.019-3.177,5.654-7.843,9.863-11.459c4.649-4.082,9.678-6.823,11.624-7.811
		c0.31-0.159,0.53-0.285,0.814-0.483c0.195-0.122,0.451-0.26,0.731-0.417c0.753-0.419,1.604-0.902,2.527-1.515
		c2.032-1.412,3.27-2.913,4.018-4.36c2.035,4.07,6.201,6.9,11.054,6.9c6.837,0,12.399-5.563,12.399-12.401
		c0-6.835-5.562-12.396-12.399-12.396c-5.417,0-9.984,3.513-11.668,8.363c-0.854-2.28-2.862-4.678-6.924-6.857l-0.349-0.184
		c-0.202-0.127-0.41-0.247-0.622-0.358l-0.482-0.245c-2.564-1.31-6.439-3.286-9.804-5.939c-3.54-2.729-6.621-6.289-7.985-8.442
		c-0.049-0.078-0.1-0.157-0.153-0.232c-1.726-2.514-3.975-7.089-5.734-11.663c-1.255-3.251-2.297-6.62-3.134-9.327
		c-0.424-1.367-0.802-2.591-1.142-3.601c-0.037-0.111-0.28-0.773-0.28-0.773c-0.605-1.699-1.661-4.668-3.991-6.776
		c-0.939-1.442-2.046-2.393-3.13-3.023c5.563-1.221,9.745-6.174,9.745-12.1c0-6.838-5.562-12.401-12.399-12.401
		c-6.838,0-12.401,5.563-12.401,12.401c0,5.07,3.065,9.424,7.434,11.347c-4.597,1.525-6.459,6.593-7.231,8.709
		c-0.08,0.224-0.149,0.422-0.184,0.511c-0.097,0.213-0.184,0.431-0.26,0.654c-1.014,2.934-2.712,7.848-5.407,12.562
		c-1.213,2.183-2.668,4.485-4.311,6.821l-0.642,0.907c-1.404,1.986-2.741,3.881-3.9,5.411c-2.548,3.489-6.223,7.209-9.9,10.001
		c-2.975,2.317-6.281,4.438-8.938,6.144c-1.313,0.841-2.494,1.601-3.468,2.268c-0.093,0.064-0.643,0.464-0.643,0.464
		c-1.434,1.029-2.6,2.04-3.539,3.025c-2.272-2.891-5.757-4.783-9.709-4.783c-6.838,0-12.401,5.563-12.401,12.401
		c0,6.836,5.563,12.396,12.401,12.396c4.231,0,7.966-2.136,10.204-5.379c1.159,0.841,2.606,1.488,4.412,1.758
		c0.668,0.561,1.281,1.017,1.732,1.353l0.116,0.083c0.998,0.774,2.234,1.663,3.614,2.648c2.533,1.807,5.402,3.856,8.129,6.235
		c4.162,3.54,7.666,7.657,9.581,10.359c1.958,2.733,4.784,7.449,6.875,12.56c1.371,3.251,2.467,6.586,3.433,9.53
		c0.14,0.427,0.277,0.843,0.41,1.246c-0.007,1.287,0.036,2.503,0.137,3.719c0.599,5.406,2.195,8.608,4.053,10.498
		c-2.947,2.268-4.881,5.794-4.881,9.793c0,6.838,5.562,12.401,12.399,12.401c6.838,0,12.401-5.563,12.401-12.401
		c0-4.631-2.583-8.633-6.356-10.761c1.36-1.75,2.427-4.119,3.153-7.179C96.535,390.586,96.725,389.786,96.865,388.948z"/>
	<path class="st0" d="M698.03,237.79c0.183-0.76,0.373-1.589,0.574-2.467c0.752-3.273,1.687-7.343,3.094-11.327
		c1.834-5.458,4.711-10.757,6.873-14.02c2.018-3.178,5.654-7.843,9.863-11.459c4.648-4.082,9.677-6.824,11.623-7.812
		c0.31-0.159,0.53-0.284,0.814-0.482c0.195-0.123,0.452-0.26,0.732-0.417c0.752-0.42,1.603-0.903,2.526-1.516
		c2.032-1.412,3.268-2.91,4.017-4.357c2.036,4.07,6.203,6.897,11.055,6.897c6.837,0,12.399-5.563,12.399-12.402
		c0-6.835-5.562-12.396-12.399-12.396c-5.417,0-9.984,3.512-11.669,8.361c-0.855-2.281-2.863-4.678-6.923-6.856l-0.348-0.184
		c-0.202-0.128-0.41-0.248-0.623-0.358l-0.482-0.245c-2.564-1.31-6.438-3.285-9.804-5.939c-3.54-2.729-6.62-6.288-7.985-8.441
		c-0.049-0.078-0.1-0.157-0.153-0.233c-1.725-2.513-3.975-7.088-5.734-11.663c-1.255-3.251-2.297-6.619-3.134-9.326
		c-0.423-1.368-0.802-2.591-1.142-3.602c-0.036-0.11-0.28-0.772-0.28-0.772c-0.605-1.699-1.661-4.668-3.991-6.777
		c-0.939-1.441-2.045-2.393-3.129-3.023c5.563-1.221,9.745-6.173,9.745-12.1c0-6.838-5.562-12.401-12.399-12.401
		c-6.838,0-12.402,5.563-12.402,12.401c0,5.071,3.066,9.425,7.434,11.347c-4.597,1.525-6.459,6.593-7.23,8.709
		c-0.081,0.223-0.15,0.422-0.184,0.51c-0.098,0.213-0.184,0.432-0.26,0.654c-1.014,2.935-2.712,7.848-5.408,12.563
		c-1.213,2.182-2.668,4.484-4.311,6.821l-0.641,0.907c-1.404,1.986-2.742,3.881-3.9,5.411c-2.548,3.489-6.223,7.208-9.9,10.001
		c-2.975,2.317-6.281,4.438-8.938,6.144c-1.313,0.841-2.494,1.601-3.469,2.267c-0.093,0.064-0.643,0.464-0.643,0.464
		c-1.434,1.03-2.599,2.04-3.538,3.025c-2.273-2.89-5.758-4.783-9.709-4.783c-6.838,0-12.402,5.563-12.402,12.402
		c0,6.835,5.563,12.396,12.402,12.396c4.231,0,7.965-2.136,10.203-5.379c1.159,0.84,2.607,1.488,4.412,1.757
		c0.669,0.562,1.281,1.018,1.732,1.353l0.116,0.083c0.999,0.775,2.234,1.663,3.615,2.648c2.532,1.807,5.401,3.857,8.129,6.235
		c4.161,3.541,7.666,7.657,9.58,10.359c1.959,2.734,4.784,7.449,6.875,12.561c1.372,3.251,2.467,6.585,3.433,9.53
		c0.141,0.426,0.277,0.843,0.41,1.245c-0.008,1.288,0.035,2.504,0.136,3.72c0.598,5.406,2.195,8.608,4.052,10.498
		c-2.947,2.268-4.881,5.793-4.881,9.792c0,6.838,5.562,12.401,12.399,12.401c6.837,0,12.399-5.563,12.399-12.401
		c0-4.631-2.583-8.63-6.354-10.76c1.361-1.751,2.427-4.119,3.154-7.179C697.7,239.428,697.889,238.629,698.03,237.79z"/>
	<path class="st0" d="M623.738,451.593c0.148-0.62,0.303-1.29,0.466-2.003c0.614-2.677,1.379-6.009,2.532-9.267
		c1.475-4.399,3.793-8.667,5.552-11.321c1.622-2.555,4.543-6.301,7.927-9.211c3.747-3.286,7.798-5.497,9.365-6.294
		c0.336-0.172,0.472-0.242,0.779-0.461l0.492-0.277c2.157-1.199,3.655-2.452,4.74-3.707c2.109,2.832,5.453,4.696,9.248,4.696
		c6.376,0,11.563-5.188,11.563-11.563c0-6.375-5.187-11.562-11.563-11.562c-4.117,0-7.713,2.18-9.762,5.428
		c-1.053-1.375-2.649-2.755-5.024-4.026l-0.202-0.1c-0.2-0.127-0.406-0.247-0.617-0.355l-0.417-0.213
		c-2.198-1.123-5.209-2.663-7.902-4.786c-2.812-2.167-5.241-4.969-6.309-6.654c-0.05-0.078-0.1-0.157-0.152-0.233
		c-1.375-2.005-3.183-5.688-4.609-9.391c-1.026-2.66-1.883-5.433-2.572-7.659c-0.351-1.135-0.665-2.148-0.947-2.989
		c-0.034-0.1-0.245-0.672-0.245-0.672c-0.494-1.39-1.433-4.023-3.508-5.99c-0.306-0.457-0.642-0.851-0.989-1.221
		c3.971-1.831,6.749-5.828,6.749-10.479c0-6.375-5.187-11.562-11.563-11.562c-6.375,0-11.562,5.188-11.562,11.562
		c0,3.835,1.898,7.216,4.781,9.319c-2.777,2.028-4.018,5.426-4.536,6.848l-0.115,0.329c-0.096,0.213-0.183,0.429-0.259,0.65
		c-0.825,2.388-2.207,6.385-4.39,10.205c-0.982,1.768-2.159,3.631-3.487,5.516l-0.697,0.983c-1.093,1.545-2.129,3.014-3.057,4.237
		c-2.04,2.795-4.985,5.776-7.946,8.024c-2.414,1.878-5.007,3.543-7.297,5.012c-1.102,0.708-2.094,1.346-2.912,1.905
		c-0.092,0.064-0.555,0.399-0.555,0.399c-0.781,0.562-1.457,1.118-2.069,1.669c-2.092-2.079-4.97-3.369-8.145-3.369
		c-6.376,0-11.563,5.188-11.563,11.563s5.187,11.563,11.563,11.563c3.494,0,6.592-1.592,8.714-4.048
		c0.826,0.439,1.761,0.787,2.842,0.981c0.483,0.392,0.926,0.723,1.281,0.986c0.839,0.653,1.877,1.395,3.037,2.224
		c2.071,1.48,4.419,3.156,6.64,5.089c3.359,2.864,6.181,6.174,7.719,8.344c1.579,2.209,3.86,6.016,5.553,10.15
		c1.116,2.648,2.014,5.385,2.807,7.799l0.273,0.821c-0.002,1.032,0.038,2.023,0.122,3.037c0.44,3.933,1.489,6.598,2.792,8.398
		c-2.145,2.099-3.487,5.018-3.487,8.25c0,6.372,5.187,11.557,11.563,11.557c6.375,0,11.562-5.185,11.562-11.557
		c0-3.81-1.877-7.171-4.73-9.278c0.806-1.345,1.509-3.05,2.031-5.229C623.451,453.008,623.615,452.316,623.738,451.593z"/>
	<g>
		<path class="st0" d="M226.842,507.103l13.593-51.198c-27.119-23.03-39.432-64.217-39.903-92.226
			c-0.471-28.009,25.036-84.837,52.047-106.13c-3.423-13.917,6.159-10.323-18.761-39.006
			c-24.92-28.681-12.663-163.441,59.083-156.814c71.744,6.627,63.575,73.666,63.575,73.666s15.696-82.975,69.373-73.904
			c53.674,9.074,49.239,57.995,54.77,79.928c5.534,21.931,1.684,50.708-4.053,63.901c-5.734,13.19-10.79,30.64-10.79,30.64
			s57.701,50.254,69.966,108.673c2.207,29.803-30.638,82.934-30.638,82.934s28.58,49.717,29.667,93.788
			c1.086,44.071-134.081,102.208-171.113,91.803C326.626,602.749,233.74,524.996,226.842,507.103z"/>
		<path class="st1" d="M361.866,433.363c-4.048-9.309-11.489-51.909-11.489-51.909s14.558-24.979,17.81-22.125
			c3.251,2.856,15.625,15.559,17.812,23.263c2.187,7.706,1.199,33.798-3.69,44.975C377.417,438.745,366.652,444.359,361.866,433.363
			z"/>
		<path class="st2" d="M237.271,129.138c0,0-2.984,20.007,14.181,18.278c17.165-1.731,22.525-36.216,35.056-23.842
			c12.53,12.374,5.654,22.988,20.043,20.115c14.392-2.874,11.203-26.806,20.745-20.115c0,0,16.447-27.541,23.299,0
			c6.855,27.544,26.403-12.202,40.967-5.392c14.561,6.814,11.645,20.338,20.406,2.624c8.757-17.714,15.149-26.785,24.123-9.471
			c8.973,17.312,14.628,31.677,22.753,17.803c8.125-13.874,24.294,2.351,20.528-8.331c-3.768-10.682-14.747-69.64-56.775-75.316
			c-42.026-5.673-67.366,72.693-67.366,72.693s-24.128-63.366-48.68-72.693C282.002,36.167,223.09,110.86,237.271,129.138z"/>
		<path class="st2" d="M250.93,239.839c-5.646-9.074-13.436-25.3-17.999-43.284c-2.322-8.954-3.932-18.261-4.585-26.918
			c-0.679-8.672-0.277-16.545,0.763-23.042c0.988-6.468,2.92-14.233,6.049-22.345c3.089-8.126,7.355-16.576,11.928-24.771
			c8.939-16.231,20.436-30.356,27.982-37.64c1.572-1.552,4.791-4.47,7.697-6.671c2.881-2.148,5.595-3.528,4.832-4.573
			c0.15-0.647-0.573-0.939-1.929-0.961c-1.398-0.101-3.234,0.392-5.276,1.034c-3.96,1.462-8.03,4.222-9.974,5.668
			c-9.444,6.907-22.117,21.157-32.03,38.138c-4.921,8.346-9.567,17.214-12.987,25.989c-3.465,8.755-5.634,17.353-6.725,24.52
			c-1.153,7.122-1.584,16.115-0.763,25.484c0.787,9.386,2.645,19.266,5.335,28.72c5.284,18.953,14.409,35.946,21.774,44.772
			c1.415,1.925,4.641,5.475,7.633,8.157c3.174,2.545,5.943,4.281,6.345,3.032c1.189-0.412-0.373-3.276-2.518-6.382
			C254.495,245.493,252.001,241.829,250.93,239.839z"/>
		<path class="st2" d="M358.792,216.816c0.691-4.808,1.083-11.189,1.441-18.276c0.108-1.748,0.216-3.548,0.326-5.388
			c0.137-1.881,0.301-3.406,0.559-5.49c0.471-3.964,0.841-8.061,1.111-12.198c1.091-16.565,0.451-33.708-1.086-45.788
			c-0.758-6.033-2.05-13.362-4.22-21.085c-2.131-7.73-5.191-15.829-8.967-23.394c-0.934-1.903-1.919-3.735-2.945-5.583
			c-0.563-0.939-1.123-1.873-1.679-2.802c-0.61-0.89-1.216-1.775-1.817-2.653c-2.491-3.437-5.239-6.438-7.934-9.045
			c-5.424-5.202-10.499-8.957-14.184-11.823c-1.574-1.182-4.597-3.546-7.254-5.46c-2.673-1.891-4.966-3.425-5.554-2.297
			c-1.182,0.341-0.078,3.013,1.906,5.84c1.956,2.842,4.697,5.825,6.08,7.267c3.276,3.523,7.956,7.755,12.536,12.766
			c2.285,2.513,4.523,5.244,6.499,8.23c0.473,0.758,0.952,1.518,1.434,2.285c0.434,0.792,0.871,1.586,1.309,2.385
			c0.865,1.695,1.748,3.462,2.559,5.237c6.736,14.194,10.425,30.16,11.754,41.458c1.444,11.291,2.152,27.972,1.537,43.949
			c-0.15,3.996-0.37,7.953-0.662,11.773c-0.147,1.807-0.294,4.121-0.321,6c-0.037,1.949-0.032,3.817-0.012,5.621
			c0.152,7.089,0.289,13.328,0.39,18.031c0.039,1.929,0.12,5.774,0.096,8.903c-0.02,1.559-0.052,2.927-0.002,3.91
			c0.007,0.895,0.179,1.674,0.763,1.775c0.363,0.537,1.035,0.331,1.973-0.603c0.839-0.915,1.641-2.44,2.264-4.134
			C357.929,222.843,358.5,218.824,358.792,216.816z"/>
		<path class="st2" d="M413.773,42.001c-3.011,0.062-7.057,0.886-11.112,2.808c-4.085,1.868-8.191,4.688-11.867,7.966
			c-7.411,6.558-13.07,14.811-16.63,20.676c-3.57,5.879-8.018,14.644-11.16,23.554c-3.24,8.866-5.097,17.902-5.235,23.515
			c-0.025,1.171-0.052,3.516,0.375,5.514c0.417,2.008,1.24,3.579,2.383,3.293c1.157,0.262,1.979-1.194,2.687-2.889
			c0.699-1.706,1.336-3.721,1.66-4.734c1.574-4.84,4.053-12.95,7.495-21.098c3.349-8.171,7.552-16.294,10.832-21.698
			c3.266-5.396,8.392-12.909,14.429-18.786c2.994-2.952,6.181-5.472,9.202-7.306c3.011-1.885,5.865-2.977,8.074-3.7
			c0.465-0.127,1.157-0.421,1.951-0.628c0.795-0.186,1.687-0.453,2.538-0.748c1.674-0.41,3.248-1.096,3.17-2.253
			c0.468-1.105-0.968-2.074-2.991-2.829c-1.006-0.287-2.143-0.464-3.19-0.608C415.34,41.931,414.408,42.009,413.773,42.001z"/>
		<path class="st2" d="M477.495,213.237c2.317-4.259,4.411-10.359,5.948-17.283c1.579-6.963,2.452-14.865,2.837-22.853
			c0.37-7.992,0.235-16.071-0.042-23.532c-0.164-3.764-0.249-7.238-0.522-10.727c-0.128-1.728-0.253-3.401-0.37-5.004
			c-0.189-1.597-0.37-3.126-0.544-4.578c-1.314-11.604-5.406-28.088-12.486-42.685c-6.966-14.672-16.827-26.992-23.589-33.374
			c-1.456-1.299-4.269-3.969-6.998-5.806c-2.733-1.841-5.161-3.043-5.597-1.866c-1.113,0.525,0.179,2.913,2.018,5.48
			c1.844,2.572,4.043,5.541,5.195,6.98c5.305,7.071,13.798,19.013,19.869,32.812c6.166,13.735,9.893,28.99,11.116,39.803
			c0.162,1.351,0.333,2.773,0.51,4.261c0.115,1.493,0.235,3.05,0.359,4.661c0.267,3.182,0.387,6.845,0.583,10.479
			c0.346,7.336,0.601,15.154,0.466,22.77c-0.144,7.61-0.654,15.027-1.674,21.517c-1.008,6.529-2.32,12.068-3.693,16.091
			c-0.544,1.706-1.809,5.065-2.9,8c-1.067,2.937-1.852,5.505-0.631,5.764c0.682,1.035,2.852-0.647,5.014-3.182
			C474.54,218.449,476.571,215.019,477.495,213.237z"/>
		<path class="st2" d="M245.271,449.469c-4.036-3.18-8.861-8.319-13.666-14.835c-4.783-6.539-9.547-14.471-14.049-22.785
			c-4.484-8.267-8.306-16.797-10.17-25.033c-1.944-8.221-1.961-16.164-1.429-22.75c0.238-3.295,0.696-7.012,1.432-10.668
			c0.743-3.746,1.979-7.764,3.389-11.911c2.866-8.299,6.826-17.082,10.959-25.656c2.114-4.293,4.21-8.547,6.24-12.668
			c1.025-2.079,2.035-4.126,3.024-6.127c0.973-2.005,1.88-3.803,2.854-5.629c3.886-7.213,7.789-13.426,10.709-18.08
			c1.214-1.954,3.698-5.793,5.708-9.128c1.994-3.339,3.524-6.211,2.263-6.601c-0.465-1.236-3.3,0.552-6.298,3.256
			c-3.008,2.687-6.131,6.262-7.661,8.089c-3.685,4.357-8.238,10.417-12.794,17.847c-1.123,1.841-2.28,3.876-3.339,5.83
			c-1.064,1.949-2.153,3.943-3.256,5.967c-2.216,4.067-4.484,8.307-6.706,12.639c-4.44,8.669-8.699,17.734-11.878,26.686
			c-1.569,4.487-2.952,8.895-3.842,13.252c-0.9,4.438-1.375,8.402-1.648,12.048c-0.591,7.255-0.577,16.483,1.777,26.074
			c2.266,9.609,6.736,19.058,11.629,27.582c4.877,8.505,10.158,16.667,15.75,23.478c5.607,6.784,11.521,12.166,16.78,15.226
			c2.108,1.353,6.757,3.631,11.033,4.325c1.079,0.137,2.101,0.24,3.014,0.292c0.927-0.005,1.761-0.142,2.422-0.268
			c1.331-0.271,2.001-0.701,1.741-1.328c0.316-0.557-0.309-1.145-1.388-1.717c-0.539-0.299-1.203-0.539-1.927-0.861
			c-0.713-0.38-1.495-0.759-2.31-1.125C250.403,453.269,246.916,450.889,245.271,449.469z"/>
		<path class="st2" d="M508.601,429.151c3.993-4.019,8.902-9.81,13.918-16.893c4.98-7.095,9.937-15.666,13.414-25.211
			c3.516-9.506,5.355-19.989,5.102-29.762c-0.037-4.894-0.741-9.56-1.51-13.89c-0.517-2.135-1.018-4.202-1.498-6.183
			c-0.498-1.969-1.077-3.692-1.604-5.406c-4.2-13.551-11.977-32.459-22.257-49.215c-2.489-4.148-5.386-8.426-8.389-12.148
			c-3.016-3.766-6.159-7.184-9.234-10.224c-6.167-6.071-11.857-10.842-16.086-14.402c-1.793-1.481-5.279-4.433-8.349-6.814
			c-3.084-2.361-5.747-4.215-6.286-2.993c-1.266,0.318,0.164,3.334,2.486,6.602c2.297,3.283,5.419,6.816,6.995,8.547
			c3.751,4.195,9.01,9.417,14.51,15.48c5.538,6.108,10.92,13.08,15.454,21.218c9.417,16.221,16.78,34.308,20.786,47.234
			c0.49,1.601,1.076,3.349,1.508,5.08c0.424,1.726,0.865,3.526,1.322,5.387c0.667,3.756,1.314,7.781,1.37,11.998
			c0.282,8.42-1.149,17.491-4.072,26.051c-5.816,17.231-16.876,31.917-23.253,40.758c-1.306,1.888-4.106,5.504-6.259,8.775
			c-2.206,3.226-3.758,6.122-2.508,6.521c0.461,1.243,3.249-0.5,6.37-2.978C503.599,434.158,506.987,430.889,508.601,429.151z"/>
		<path class="st2" d="M234.37,526.935c0.608-3.629,0.876-9.596,1.226-15.757c0.323-6.164,0.77-12.509,1.184-16.915
			c0.392-4.413,1.167-10.685,2.153-16.652c0.978-5.972,2.197-11.619,2.744-15.118c0.133-1.485,1.044-5.82-1.253-6.568
			c-1.929-1.418-4.869,2.5-5.683,3.923c-2.169,3.29-4.408,9.319-5.938,15.686c-1.545,6.37-2.44,13.051-2.854,17.707
			c-0.439,4.656-0.831,11.332-0.693,17.763c0.112,6.431,0.718,12.61,1.699,16.277c0.373,1.539,1.704,6.075,4.033,5.514
			C233.385,532.986,234.076,528.448,234.37,526.935z"/>
		<path class="st2" d="M533.819,501.736c-0.166-3.849-0.931-10.067-1.648-16.711c-0.728-6.625-1.655-13.654-2.574-18.601
			c-0.49-2.525-0.993-5.374-1.971-8.866c-0.976-3.367-2.29-6.736-3.668-9.905c-2.802-6.333-5.603-11.916-7.38-15.199
			c-0.373-0.684-1.11-2.04-1.949-3.16c-0.826-1.109-1.82-2.052-2.972-1.702c-1.201-0.054-1.873,1.214-2.154,2.792
			c-0.275,1.565-0.115,3.338-0.03,4.223c0.41,4.244,2.633,10.67,4.867,16.843c1.101,3.099,2.153,6.182,2.888,8.981
			c0.694,2.687,1.233,5.684,1.665,7.941c0.799,4.762,1.944,11.58,3.05,18.171c1.194,6.703,2.901,13.266,4.675,16.998
			c0.708,1.586,3.126,6.124,5.269,4.965C534.237,508.133,533.851,503.34,533.819,501.736z"/>
		<path class="st2" d="M413.868,384.509c-2.231,1.196-5.529,2.045-9.587,1.476c-4.028-0.488-8.581-2.405-12.625-5.085
			c-2.069-1.294-3.891-2.94-5.575-4.593c-0.75-0.877-1.569-1.731-2.175-2.638l-0.9-1.351c-0.304-0.451-0.647-1.105-0.966-1.641
			c-2.679-4.523-5.075-8.644-8.275-12.133l-0.524-0.547l-0.878-0.738c-0.569-0.544-1.255-0.89-1.935-1.292
			c-0.716-0.291-1.463-0.569-2.28-0.632c-0.405-0.068-0.807,0.103-1.216,0.145c-0.414-0.069-0.802,0.162-1.211,0.228
			c-0.841,0.488-1.87,0.912-2.601,1.473c-0.692,0.537-1.174,0.883-1.702,1.371c-0.464,0.471-0.934,0.949-1.41,1.432
			c-0.434,0.49-0.819,0.996-1.233,1.503c-1.557,2.03-2.871,4.163-4.095,6.274c-2.437,4.209-4.722,8.463-7.451,11.553
			c-1.414,1.564-2.711,2.522-4.408,3.361c-1.841,0.856-3.803,1.545-5.635,2.072c-3.688,1.084-6.997,1.39-9.167,1.138
			c-1.049-0.113-2.77-0.527-3.906-1.655c-0.255-0.308-0.505-0.632-0.789-0.924c-0.275-0.301-0.417-0.654-0.647-0.912
			c-0.424-0.527-0.871-0.861-1.277-0.667c-0.466-0.125-0.78,0.262-0.959,1.076c-0.069,0.402-0.194,0.914-0.113,1.488
			c0.093,0.572,0.22,1.231,0.439,1.908c0.333,0.622,0.682,1.341,1.163,1.939c0.526,0.53,1.061,1.169,1.659,1.539
			c1.194,0.854,2.351,1.273,3.129,1.55c3.359,1.069,7.61,1.025,12.046,0.12c2.236-0.454,4.526-1.083,6.916-2.035
			c0.584-0.208,1.226-0.524,1.891-0.894c0.652-0.353,1.336-0.694,1.89-1.146c1.226-0.831,2.26-1.794,3.273-2.788
			c3.837-4.065,6.331-8.677,8.768-12.678c1.204-2.011,2.393-3.849,3.582-5.377l0.89-1.072l0.88-0.885
			c0.255-0.245,0.652-0.495,0.767-0.613l0.046-0.039v0.002l0.255,0.272c2.126,2.263,4.671,6.347,7.226,10.626
			c0.343,0.561,0.6,1.056,1.022,1.689c0.432,0.635,0.868,1.273,1.304,1.914c0.893,1.268,1.947,2.351,2.977,3.482
			c2.185,2.084,4.511,4.036,7.074,5.546c5.053,3.101,10.658,5.205,16.115,5.492c5.441,0.409,10.53-1.403,13.4-3.842
			c0.566-0.547,1.404-1.371,2.27-2.303c0.704-1.059,1.395-2.27,1.952-3.366c0.715-2.403,0.934-4.306-0.032-4.31
			c-0.682-0.586-2.045,0.723-3.271,2.265c-0.789,0.642-1.539,1.364-2.199,1.998C414.962,383.766,414.302,384.207,413.868,384.509z"
			/>
		<path class="st2" d="M321.394,275.091c-18.913-5.006-27.661,20.914-28.335,43.178c-0.675,22.265,5.396,32.386,20.914,32.386
			C329.493,350.655,344.333,281.161,321.394,275.091z"/>
		<path class="st2" d="M418.414,265.379c-20.659,4.695-22.562,64.384-1.888,72.455c20.956,8.184,28.125-10.263,24.962-43.853
			C439.134,268.983,433.257,262.005,418.414,265.379z"/>
		<path class="st2" d="M383.736,390.645c-0.522,5.923-1.126,15.883-2.891,25.847c-0.885,4.953-2.086,9.952-3.822,13.961
			c-0.865,1.966-1.94,3.643-2.908,4.511c-1.037,0.89-1.363,0.822-2.265,0.735c-2.438-0.373-5.071-2.407-7.194-6.21
			c-2.118-3.727-3.629-8.599-4.82-13.475c-2.336-9.824-3.68-19.84-5.122-25.778c-0.54-2.486-2.459-9.922-4.112-8.983
			c-1.805-0.307-1.393,7.169-1.338,9.716c0.279,6.054,0.956,16.13,3.099,26.73c1.128,5.286,2.613,10.738,5.323,15.696
			c1.363,2.461,3.087,4.808,5.291,6.669c2.182,1.87,4.882,3.114,7.358,3.55c1.375,0.25,3.126,0.294,4.823-0.181
			c0.821-0.243,1.601-0.638,2.388-1.022c0.657-0.461,1.382-0.947,1.971-1.481c2.337-2.187,3.705-4.734,4.833-7.286
			c2.136-5.132,3.271-10.589,4.06-15.935c1.522-10.687,1.476-20.943,0.826-27.129c-0.128-1.29-0.444-3.864-1.057-6.034
			c-0.307-1.086-0.694-2.069-1.177-2.758c-0.245-0.329-0.49-0.61-0.843-0.789c-0.301-0.115-0.439,0.029-0.554,0.252l-0.439,0.466
			l-0.218,0.191l-0.157,0.402c-0.194,0.594-0.343,1.528-0.48,2.56C384.037,386.936,383.856,389.402,383.736,390.645z"/>
		<path class="st2" d="M448.774,375.705c-0.659-0.479-1.689-1.124-2.832-2.065c-1.135-0.927-2.29-2.138-3.067-3.021
			c-1.614-1.755-3.982-5.61-5.33-7.1c-0.355-0.299-1.164-1.258-2.611-0.961c-1.469,0.069-1.773,1.793-1.761,2.339
			c-0.107,1.368,0.461,3.383,1.397,5.266c0.922,1.896,2.209,3.67,3.214,4.84c1.022,1.16,2.604,2.778,4.614,3.947
			c1.965,1.189,4.478,1.795,6.025,1.324c0.657-0.052,2.376-0.971,1.873-2.351C450.02,376.45,449.022,376.008,448.774,375.705z"/>
		<path class="st2" d="M472.419,370.74c-0.635-0.768-1.753-1.56-2.842-2.474c-1.094-0.897-2.187-1.917-2.945-2.692
			c-1.523-1.476-4.2-4.94-6.169-5.992c-0.409-0.211-1.648-0.834-2.756,0.127c-1.231,0.799-1.013,2.14-0.934,2.589
			c0.331,2.123,3.075,6.019,5.06,7.976c0.949,0.973,2.462,2.322,4.19,3.295c1.716,0.993,3.592,1.535,4.791,1.463
			c0.515-0.027,1.979-0.22,2.253-1.667C473.54,371.978,472.67,371.051,472.419,370.74z"/>
		<path class="st2" d="M497.197,371.085c-0.819-0.912-2.304-2.145-3.844-3.596c-1.542-1.432-3.138-3.021-4.249-4.156
			c-2.244-2.214-6.255-6.782-8.782-8.186c-0.126-0.071-0.316-0.174-0.544-0.275l0.515,1.491l-0.063-0.023
			c-0.37-0.066-0.652-0.066-0.951-0.144c-0.574-0.098-0.868-0.329-0.819-0.321c0.007,0.059,0.039,0.049-0.032,0.441l-0.071,0.294
			l-0.093,0.319c-0.157,0.586-0.083,0.322-0.1,0.38l0.005-0.005l0.035-0.047l0.446-0.13c0.501-0.263,0.697-0.868,0.684-1.403
			c0.069-0.559-0.064-0.833-0.186-1.196l-0.03-0.248c-0.096-0.02-0.188-0.443-1.424-0.147c-0.25,0.088-0.53,0.284-0.704,0.461
			l-0.346,0.454l-0.253,0.507l-0.213,0.557l0.513,1.491c0.068,0.238,0.142,0.434,0.191,0.566c0.967,2.594,4.968,7.426,7.434,9.868
			c1.204,1.231,3.001,2.962,5.019,4.409c1.996,1.458,4.281,2.576,5.877,2.768c0.637,0.151,2.667,0.171,2.908-1.28
			C498.629,372.544,497.508,371.527,497.197,371.085z"/>
		<path class="st2" d="M289.202,392.624c1.478,0.02,4.121-0.924,5.933-2.917c1.834-1.922,2.85-4.193,3.43-5.622
			c0.606-1.456,1.28-3.482,1.856-5.2c0.586-1.734,1.113-3.131,1.385-4.045c0.044-0.427,0.569-1.56-0.29-2.776
			c-0.632-1.327-2.499-0.752-3.035-0.377c-1.452,0.701-2.942,2.699-3.925,4.675c-1,1.998-1.682,3.933-2.202,5.169
			c-0.501,1.265-1.244,2.858-2.055,4.008c-0.78,1.182-1.785,1.915-2.486,2.719c-0.292,0.26-1.356,1.155-1.086,2.587
			C286.76,392.332,288.538,392.582,289.202,392.624z"/>
		<path class="st2" d="M264.871,392.632c1.261-0.155,3.148-0.986,4.882-2.264c1.743-1.258,3.264-2.932,4.193-4.163
			c0.935-1.231,2.104-3.101,2.888-5.004c0.799-1.9,1.258-3.79,1.204-5.021c-0.022-0.517-0.143-2.042-1.567-2.406
			c-1.349-0.581-2.378,0.459-2.724,0.792c-1.606,1.681-3.658,5.784-5.154,7.578c-0.708,0.939-1.792,2.19-2.947,3.337
			c-1.142,1.157-2.369,2.219-3.001,3.143c-0.26,0.373-1.116,1.51-0.397,2.788C262.762,392.791,264.329,392.693,264.871,392.632z"/>
		<path class="st2" d="M239.789,390.783c1.51,0.37,4.187-0.414,6.061-2.005c1.917-1.547,3.158-3.498,3.935-4.823
			c1.599-2.689,3.364-7.737,3.166-10.054c-0.037-0.505-0.135-1.94-1.527-2.403c-1.307-0.674-2.415,0.429-2.761,0.787
			c-1.689,1.797-3.489,6.328-4.714,8.349c-0.594,1.025-1.484,2.417-2.381,3.41c-0.897,1.007-1.728,1.63-2.41,2.202
			c-0.23,0.268-1.289,0.848-1.387,2.325C237.438,390.006,239.125,390.712,239.789,390.783z"/>
		<path class="st2" d="M376.344,323.06c-1.12-0.969-3.281-1.535-5.396-1.626c-2.126-0.106-4.146,0.174-5.478,0.382
			c-1.328,0.213-3.13,0.566-4.697,1.003c-1.579,0.442-2.959,0.945-3.849,1.717c-0.351,0.336-1.525,1.26-1.684,3.631
			c-0.375,2.347,1.044,3.465,1.564,3.793c1.202,0.824,3.293,1.148,5.282,1.118c2.003-0.024,3.871-0.321,5.112-0.517
			c1.238-0.198,2.908-0.483,4.374-0.804c1.479-0.329,2.796-0.676,3.739-1.346c0.37-0.289,1.63-1.056,2.118-3.383
			C378.127,324.756,376.841,323.455,376.344,323.06z"/>
		<path class="st3" d="M16.381,565.612c11.412,15.723,17.501,81.927-6.849,100.959c18.261,0.828,53.265,20.691,55.551,60.412
			c22.828-8.275,66.963-9.103,89.791,19.033c19.786-13.24,70.011-19.033,94.359,8.277c22.831-20.69,66.965-37.24,104.252,1.655
			c3.805,1.655,50.225-39.724,111.863-8.277c24.352-16.55,62.398-29.792,100.448-0.826c32.721-13.242,62.398-15.724,93.596,0
			c19.786-24.827,58.596-37.241,90.554-26.482c3.805,1.655,2.286-4.139,1.523-8.275c-0.76-4.139-0.76-84.411,39.569-110.066
			c4.568-5.793,3.805-4.139-5.325-4.139c-9.133,0-44.897-24.824-54.028-81.097c-20.546,9.101-41.092,17.378-67.726,10.756
			c-26.634-6.62-47.179-30.618-47.179-30.618s-41.092,32.273-95.882-12.413c-9.133,6.62-57.073,58.755-111.101,2.482
			c-22.829,19.035-64.682,34.759-104.252-2.482c-18.263,20.688-62.4,47.17-111.863,1.655c-10.653,16.552-38.809,61.239-103.49,7.449
			C93.999,506.029,63.56,563.957,16.381,565.612z"/>
		<path class="st2" d="M86.126,502.3c-1.073,2.413-2.444,5.605-4.124,9.145c-1.718,3.526-3.788,7.38-6.164,11.124
			c-4.707,7.525-10.785,14.427-15.576,18.572c-4.666,4.278-12.169,9.547-20.215,13.117c-8.003,3.685-16.343,5.632-21.436,6.76
			c-1.062,0.286-3.189,0.687-5.024,1.297c-1.827,0.541-3.381,1.332-3.141,2.45c-0.323,1.112,1.223,1.922,3.21,2.488
			c1.976,0.503,4.366,0.721,5.56,0.736c5.725,0.323,15.375-1.007,24.631-4.754c9.307-3.615,17.935-9.575,23.241-14.442
			c5.45-4.722,12.268-12.59,17.111-21.217c2.447-4.289,4.445-8.714,5.899-12.769c1.417-4.075,2.339-7.753,2.751-10.57
			c0.206-1.17,0.464-3.531,0.373-5.556c-0.137-2.042-0.595-3.723-1.753-3.653c-1.042-0.478-2.143,0.875-3.068,2.562
			C87.43,499.272,86.609,501.302,86.126,502.3z"/>
		<path class="st2" d="M186.581,491.421c-1.797,1.771-4.171,4.077-6.985,6.512c-2.837,2.413-6.189,4.872-9.803,6.998
			c-7.203,4.352-15.552,6.87-21.448,7.559c-5.88,0.804-14.581,0.488-22.591-2.01c-8.069-2.317-15.111-6.597-19.367-9.236
			c-0.929-0.508-2.638-1.699-4.312-2.526c-1.621-0.877-3.242-1.404-3.881-0.46c-1.02,0.549-0.549,2.187,0.404,3.969
			c0.996,1.724,2.474,3.558,3.303,4.384c3.741,4.165,11.459,9.937,20.82,13.129c4.637,1.643,9.587,2.704,14.27,3.123
			c4.686,0.439,9.079,0.228,12.651-0.201c3.572-0.451,7.863-1.393,12.281-2.969c4.42-1.567,8.947-3.8,13.039-6.5
			c4.099-2.689,7.774-5.815,10.692-8.924c2.901-3.13,5.117-6.159,6.49-8.605c0.615-0.993,1.659-3.094,2.253-4.995
			c0.542-1.94,0.653-3.641-0.463-3.96c-0.828-0.785-2.297,0.081-3.692,1.29C188.787,489.176,187.37,490.715,186.581,491.421z"/>
		<path class="st2" d="M298.395,487.555c-4.561,3.356-12.112,8.851-20.921,12.536c-8.731,3.857-18.464,5.676-25.248,5.917
			c-6.777,0.321-16.626-0.677-25.629-3.825c-9.071-2.964-17.013-7.865-21.806-10.869c-1.044-0.584-2.976-1.93-4.832-2.876
			c-1.802-1-3.56-1.613-4.153-0.628c-1.027,0.557-0.388,2.305,0.753,4.21c1.184,1.844,2.873,3.815,3.805,4.71
			c4.244,4.494,12.732,10.788,22.902,14.613c5.043,1.959,10.42,3.361,15.523,4.126c5.104,0.782,9.919,0.917,13.864,0.785
			c3.942-0.186,8.726-0.735,13.747-1.929c5.021-1.182,10.261-3.016,15.128-5.37c9.819-4.621,17.792-11.531,21.688-16.328
			c0.861-0.961,2.398-3.05,3.443-4.975c0.998-1.981,1.508-3.773,0.443-4.251c-0.661-0.941-2.37-0.201-4.096,0.927
			C301.221,485.407,299.392,486.896,298.395,487.555z"/>
		<path class="st2" d="M402.926,488.246c-2.221,1.298-5.22,2.933-8.669,4.678c-3.491,1.689-7.488,3.406-11.658,4.874
			c-8.324,3.028-17.369,4.668-23.503,4.904c-6.08,0.29-15.039-0.816-23.117-3.908c-8.142-2.962-15.228-7.657-19.49-10.574
			c-0.929-0.571-2.657-1.849-4.342-2.77c-1.63-0.963-3.258-1.567-3.918-0.632c-1.04,0.519-0.588,2.197,0.338,4.037
			c0.971,1.785,2.435,3.683,3.241,4.565c3.658,4.396,11.269,10.541,20.549,14.421c9.221,4.04,19.778,5.465,27.151,5.105
			c7.336-0.28,17.482-2.253,26.551-6.036c4.546-1.846,8.846-4.053,12.501-6.348c3.624-2.356,6.64-4.702,8.65-6.784
			c0.88-0.807,2.482-2.635,3.578-4.364c1.044-1.815,1.579-3.469,0.556-4.026c-0.623-0.954-2.282-0.437-3.932,0.419
			C405.679,486.604,403.904,487.759,402.926,488.246z"/>
		<path class="st2" d="M509.679,489.842c-4.303,3.361-11.448,8.841-19.884,12.487c-8.356,3.822-17.727,5.554-24.236,5.701
			c-6.51,0.228-15.964-0.951-24.51-4.303c-8.623-3.171-16.04-8.266-20.507-11.396c-0.978-0.61-2.768-2.009-4.518-3.014
			c-1.692-1.054-3.374-1.733-4.033-0.794c-1.054,0.497-0.559,2.241,0.424,4.165c1.029,1.866,2.55,3.884,3.405,4.803
			c3.857,4.607,11.798,11.163,21.556,15.262c4.835,2.092,10.028,3.626,14.981,4.499c4.955,0.888,9.65,1.106,13.499,1.025
			c3.847-0.137,8.521-0.635,13.414-1.802c4.892-1.155,9.986-2.981,14.694-5.337c9.508-4.629,17.086-11.585,20.698-16.383
			c0.804-0.963,2.221-3.052,3.155-4.969c0.883-1.968,1.29-3.737,0.211-4.183c-0.704-0.902-2.349-0.143-3.986,0.998
			C512.344,487.694,510.626,489.18,509.679,489.842z"/>
		<path class="st2" d="M608.317,497.166c-4.315,1.4-11.416,3.519-19.085,4.328c-7.65,0.861-15.716,0.5-21.247-0.395
			c-5.531-0.832-13.399-2.675-20.514-5.69c-7.125-2.957-13.48-6.856-17.111-9.499c-0.388-0.267-1.039-0.603-1.682-1.061
			c-0.635-0.463-1.365-0.956-2.101-1.365c-1.471-0.812-2.988-1.317-3.709-0.449c-1.047,0.497-0.75,2.032,0.013,3.724
			c0.377,0.843,0.868,1.718,1.341,2.496c0.478,0.77,1.029,1.339,1.36,1.765c3.085,4.197,9.966,9.493,17.888,13.276
			c7.91,3.858,16.785,6.016,23.023,6.948c6.235,1,15.39,1.358,24.082-0.098c8.701-1.38,16.721-4.715,20.889-7.73
			c1.833-1.16,6.605-5.389,4.869-6.878C615.39,494.435,610.141,496.703,608.317,497.166z"/>
		<path class="st2" d="M18.809,661.114c2.996-4.009,6.711-11.504,9.192-19.747c2.557-8.225,3.751-17.106,4.139-23.306
			c0.346-6.203,0.176-15.159-1.39-23.626c-1.495-8.471-4.291-16.346-6.769-20.685c-0.968-1.863-4.354-7.057-6.135-5.625
			c-2.231,0.552-0.733,6.183-0.412,8.088c0.954,4.548,2.734,11.916,3.683,19.698c1.011,7.774,1.096,15.902,0.787,21.553
			c-0.358,5.647-1.375,13.71-3.295,21.307c-1.856,7.61-4.494,14.711-6,19.102c-0.541,1.853-2.724,7.252-0.576,8.073
			C13.62,667.589,17.626,662.85,18.809,661.114z"/>
		<path class="st2" d="M67.174,721.644c0.427-4.269-0.314-11.47-2.704-18.504c-2.329-7.049-6.173-13.811-9.452-18.07
			c-3.187-4.313-8.444-10.084-14.666-14.284c-6.159-4.269-13.058-6.897-17.41-7.343c-1.805-0.356-7.211-0.412-7.09,1.846
			c-0.721,2.18,3.697,3.984,5.024,4.837c3.359,1.719,8.76,4.605,13.73,8.53c5.013,3.874,9.432,8.819,12.17,12.514
			c2.817,3.646,6.154,9.408,8.549,15.336c2.442,5.926,3.837,11.967,4.875,15.674c0.458,1.518,1.415,6.269,3.67,5.973
			C66.083,728.69,67.034,723.458,67.174,721.644z"/>
		<path class="st2" d="M152.471,738.125c-3.116-3.305-9.219-7.848-16.243-11.359c-6.995-3.57-14.824-6.007-20.377-7.203
			c-5.551-1.194-13.686-2.273-21.551-1.889c-7.863,0.307-15.316,1.972-19.501,3.779c-1.79,0.691-6.836,3.243-5.676,5.203
			c0.311,2.266,5.556,1.643,7.301,1.601c4.193-0.268,10.976-0.978,18.015-0.839c7.039,0.076,14.262,1.101,19.23,2.165
			c4.967,1.073,11.957,3.18,18.42,6.007c6.49,2.777,12.408,6.205,16.169,8.12c1.577,0.755,6.167,3.398,7.34,1.441
			C157.438,743.804,153.818,739.488,152.471,738.125z"/>
		<path class="st2" d="M247.723,748.37c-3.668-3.714-10.886-8.762-19.259-12.244c-8.331-3.579-17.633-5.425-24.152-6.022
			c-6.519-0.571-16.008-0.458-24.854,1.597c-8.866,1.944-16.876,5.665-21.118,8.723c-1.841,1.219-6.801,5.396-5.111,6.946
			c0.838,2.143,6.394-0.164,8.299-0.718c4.533-1.521,11.9-4.075,19.828-5.392c7.909-1.41,16.255-1.437,22.027-0.944
			c5.771,0.534,13.975,2.094,21.522,4.882c7.578,2.704,14.395,6.512,18.621,8.77c1.778,0.88,6.887,4.077,8.066,2.103
			C253.514,754.819,249.316,749.891,247.723,748.37z"/>
		<path class="st2" d="M352.527,749.918c-3.673-4.666-11.285-11.383-20.727-15.846c-4.678-2.27-9.724-4.028-14.562-5.141
			c-4.835-1.13-9.446-1.616-13.244-1.758c-3.8-0.086-8.434,0.105-13.333,0.939c-4.898,0.818-10.043,2.27-14.85,4.261
			c-9.697,3.895-17.684,10.182-21.613,14.639c-0.865,0.891-2.422,2.842-3.486,4.661c-1.023,1.875-1.555,3.594-0.52,4.126
			c0.632,0.954,2.322,0.338,4.028-0.652c1.765-0.941,3.578-2.271,4.563-2.849c4.511-2.977,11.967-7.841,20.556-10.842
			c8.517-3.177,17.886-4.271,24.339-4.036c6.456,0.162,15.74,1.837,24.062,5.512c8.4,3.506,15.576,8.785,19.92,12.009
			c0.952,0.633,2.689,2.06,4.399,3.097c1.655,1.081,3.307,1.787,3.989,0.868c1.064-0.476,0.623-2.22-0.296-4.146
			C354.788,752.885,353.344,750.852,352.527,749.918z"/>
		<path class="st2" d="M460.656,741.388c-5.124-3.148-14.541-6.894-24.814-8.701c-10.258-1.927-21.151-1.739-28.63-0.907
			c-7.475,0.855-18.116,3.163-27.678,7.311c-9.601,4.043-17.947,9.751-22.286,13.897c-1.878,1.694-6.897,7.198-4.936,8.429
			c1.082,2.049,7.01-1.729,9.077-2.791c4.906-2.701,12.899-7.206,21.774-10.488c8.837-3.374,18.445-5.389,25.217-6.171
			c6.772-0.743,16.583-0.983,25.937,0.346c9.368,1.226,18.143,3.859,23.498,5.467c2.249,0.579,8.824,3.035,9.456,0.799
			C468.93,746.971,462.863,742.629,460.656,741.388z"/>
		<path class="st2" d="M560.306,739.236c-4.09-3.447-11.958-7.898-20.85-10.58c-8.868-2.799-18.546-3.646-25.249-3.557
			c-6.698,0.14-16.341,1.327-25.106,4.423c-8.794,2.984-16.505,7.694-20.482,11.266c-1.728,1.451-6.308,6.244-4.448,7.588
			c1.067,2.042,6.451-0.961,8.319-1.758c4.438-2.081,11.638-5.555,19.565-7.809c7.897-2.349,16.395-3.322,22.331-3.457
			c5.935-0.067,14.463,0.608,22.433,2.687c7.995,1.981,15.307,5.212,19.808,7.147c1.893,0.736,7.368,3.567,8.368,1.493
			C566.813,745.277,562.083,740.628,560.306,739.236z"/>
		<path class="st2" d="M716.541,520.831c-5.377,1.62-14.098,4.372-23.35,5.19c-9.224,0.93-18.955-0.169-25.502-1.665
			c-6.504-1.387-15.831-4.704-24.135-9.154c-8.41-4.335-15.491-9.913-19.428-13.544c-0.902-0.711-2.422-2.302-3.971-3.553
			c-1.412-1.309-2.935-2.314-3.781-1.552c-1.147,0.248-1.003,2.069-0.365,4.237c0.742,2.062,2.017,4.367,2.785,5.394
			c1.652,2.663,4.438,5.693,7.857,8.814c3.437,3.104,7.66,6.058,12.144,8.706c8.974,5.326,19.149,9.045,26.664,10.661
			c7.402,1.691,18.357,2.861,28.872,1.336c10.518-1.41,19.967-5.35,25.03-8.469c2.214-1.211,8.277-5.411,6.664-7.113
			C725.485,517.9,718.812,520.276,716.541,520.831z"/>
		<path class="st2" d="M784.661,593.443c-4.161-1.761-10.552-5.651-16.208-11.117c-5.716-5.404-10.592-12.244-13.691-17.199
			c-3.197-4.901-7.161-12.406-10.435-19.957c-3.32-7.532-6.034-15.037-7.971-19.511c-0.843-1.848-3.079-7.52-5.176-6.581
			c-2.287-0.066-1.858,6.24-1.591,8.358c0.544,5.056,2.606,13.24,5.718,21.427c3.062,8.204,7.272,16.343,10.78,21.73
			c3.393,5.416,8.856,13.007,15.829,18.961c6.865,6.025,15.265,10.038,20.716,10.585c0.559,0.078,1.36,0.304,2.307,0.324
			c0.952,0.002,1.998-0.032,2.95-0.15c1.914-0.228,3.41-0.778,3.256-1.935c0.347-1.068-0.925-2.103-2.41-2.932
			c-0.748-0.412-1.562-0.775-2.297-1.069C785.706,594.063,785.088,593.646,784.661,593.443z"/>
		<path class="st2" d="M754.939,710.658c0.118-6.032,0.473-16.077,2.096-26.45c1.513-10.374,4.087-20.97,6.33-28.203
			c2.205-7.238,5.899-17.479,10.72-26.646c4.714-9.238,10.607-17.17,14.569-21.529c0.404-0.468,1.01-1.167,1.692-1.954
			c0.706-0.743,1.473-1.599,2.143-2.46c1.412-1.574,2.486-3.202,1.658-3.999c-0.275-1.145-2.224-0.861-4.495-0.044
			c-1.081,0.468-2.228,1.064-3.256,1.635c-0.992,0.608-1.838,1.219-2.417,1.616c-5.588,3.783-12.943,12.257-18.447,22.064
			c-5.644,9.758-9.633,20.644-11.973,28.323c-2.378,7.676-5.035,18.898-6.193,29.968c-1.27,11.045-0.819,21.938,0.613,28.367
			c0.301,1.343,0.934,4.011,1.905,6.156c0.993,2.152,2.209,3.727,3.204,3.121c1.163,0.024,1.513-1.873,1.653-4.029
			C754.894,714.424,754.919,711.918,754.939,710.658z"/>
		<path class="st2" d="M655.92,740.817c-3.9-2.895-11.32-6.218-19.398-8.132c-8.069-2.003-16.679-2.536-22.632-2.403
			c-5.958,0.042-14.508,0.795-22.481,2.788c-7.992,1.93-15.296,5.034-19.384,7.436c-1.706,1.065-6.615,4.318-5.185,6.12
			c0.569,2.2,6.024,0.79,7.826,0.359c4.403-0.915,11.383-3.031,18.798-4.387c7.397-1.415,15.155-2.023,20.556-2.062
			c5.402-0.122,13.152,0.294,20.466,1.68c7.33,1.314,14.164,3.52,18.329,4.871c0.449,0.12,1.116,0.299,1.868,0.503
			c0.734,0.23,1.562,0.458,2.369,0.605c1.608,0.287,3.145,0.255,3.543-0.807C662.22,745.821,657.669,741.854,655.92,740.817z"/>
		<path class="st2" d="M746.409,715.433c-4.771-1.763-13.091-3.344-21.811-3.589c-8.719-0.306-17.786,0.691-24.018,2.052
			c-6.227,1.236-15.159,3.903-22.973,8.567c-7.88,4.531-14.076,11.41-16.265,16.313c-0.534,0.976-1.368,3.058-1.724,4.909
			c-0.272,1.905-0.13,3.501,1.013,3.69c0.929,0.645,2.236-0.272,3.393-1.457c1.25-1.149,2.427-2.574,3.113-3.224
			c2.974-3.312,8.378-8.223,15.243-11.734c6.797-3.592,14.677-5.919,20.291-7.024c5.59-1.226,13.828-2.202,21.855-2.347
			c8.03-0.196,15.768,0.473,20.492,0.699c1.983-0.008,7.868,0.61,8.049-1.636C754.233,718.633,748.446,716.071,746.409,715.433z"/>
		<path class="st2" d="M101.695,572.296c6.196-0.219,93.021-0.768,99.172,0c6.149,0.77,6.917,14.607,0,15.375
			c-6.918,0.771-89.176,6.919-99.172,4.612C91.702,589.978,92.504,572.62,101.695,572.296z"/>
		<path class="st2" d="M114.766,609.717v35.554c0,2.58,2.091,4.67,4.671,4.67h6.033c2.58,0,4.67-2.091,4.67-4.67v-35.554
			c0-2.579-2.091-4.671-4.67-4.671h-6.033C116.857,605.047,114.766,607.138,114.766,609.717z"/>
		<path class="st2" d="M122.451,612.057l3.416,8.458h21.99v26.031c0,1.876,1.52,3.396,3.396,3.396h4.663
			c1.829,0,3.329-1.449,3.396-3.276l1.155-32.412c0.044-1.202-0.917-2.197-2.118-2.197H122.451z"/>
		<path class="st2" d="M125.397,634.615c2.864,0,26.219,0,26.219,0v10.626h-26.219V634.615z"/>
		<path class="st2" d="M173.407,585.739c0,0,3.759,75.194,0,75.194c-3.76,0-9.4-1.41-10.339,0c-0.941,1.409-5.17,9.4,0,10.81
			c5.169,1.41,23.498,6.109,28.669,0c5.168-6.11-0.471-89.493,0-90.805C192.205,579.629,173.407,585.739,173.407,585.739z"/>
		<path class="st2" d="M295.452,554.108l-57.556,12.433c-2.912,0.63-4.489,2.734-3.498,4.671l3.052,5.971
			c0.917,1.792,3.727,2.822,6.478,2.373L301,570.261c2.83-0.461,4.627-2.322,4.085-4.237l-2.567-9.111
			C301.905,554.746,298.591,553.43,295.452,554.108z"/>
		<path class="st2" d="M242.435,585.356l2.459,5.265c0.52,1.116,2.19,1.746,3.798,1.434l4.3-0.834
			c1.677-0.326,2.653-1.549,2.175-2.726l-2.155-5.273c-0.466-1.145-2.148-1.819-3.786-1.52l-4.609,0.841
			C242.871,582.86,241.871,584.15,242.435,585.356z"/>
		<path class="st2" d="M263.929,582.439l2.052,6.053c0.461,1.356,2.347,2.222,4.296,1.969l3.759-0.486
			c1.968-0.253,3.3-1.554,3.015-2.947l-1.262-6.228c-0.304-1.495-2.339-2.503-4.44-2.197l-4.551,0.662
			C264.741,579.563,263.442,581.002,263.929,582.439z"/>
		<path class="st2" d="M286.511,586.065l0.321-7.373c0.059-1.307,1.476-2.386,3.325-2.526l5.229-0.395
			c2.469-0.189,4.502,1.346,4.065,3.067l-1.981,7.767c-0.319,1.251-1.863,2.158-3.665,2.158h-3.573
			C288.131,588.764,286.444,587.544,286.511,586.065z"/>
		<path class="st2" d="M217.336,614.454v-19.857c0-0.738,0.706-1.346,1.601-1.376l13.423-0.461c0.951-0.032,1.743,0.593,1.743,1.378
			c0,0.795,0.811,1.425,1.775,1.375c12.583-0.657,87.808-4.599,90.356-5.004c2.781-0.441-0.464,23.711-3.243,24.241
			c-2.78,0.53-12.975,2.145-13.439,0c-0.355-1.645,0.927-9.01,1.543-12.34c0.159-0.856-0.669-1.615-1.716-1.582l-73.743,2.332
			c-0.868,0.027-1.564,0.599-1.606,1.312l-0.571,10.047c-0.042,0.734-0.777,1.312-1.669,1.312h-12.782
			C218.083,615.832,217.336,615.217,217.336,614.454z"/>
		<path class="st2" d="M242.53,610.737l-3.174,8.542c-0.572,1.535,0.424,3.195,2.113,3.518l4.023,0.775
			c1.418,0.272,2.824-0.505,3.268-1.807l2.979-8.728c0.532-1.562-0.532-3.21-2.249-3.472l-3.827-0.588
			C244.305,608.769,242.987,609.512,242.53,610.737z"/>
		<path class="st2" d="M255.206,613.775c3.491,7.949,12.614,17.02,35.825,17.42c4.426-3.793,6.416-13.506,5.311-13.506
			s-8.484-0.304-8.484-0.304s-1.049,6.044-2.581,5.777c-9.349-1.626-16.378-4.999-20.87-11.653c-0.588-0.871-1.699-1.42-2.908-1.42
			h-3.161C256.025,610.088,254.419,611.983,255.206,613.775z"/>
		<path class="st2" d="M277.27,605.535l-2.972,1.226c-1.437,0.593-1.969,2.064-1.162,3.211l2.69,3.818
			c0.711,1.01,2.229,1.419,3.526,0.954l2.45-0.878c1.407-0.505,2.054-1.851,1.448-3.016l-2.165-4.165
			C280.452,605.469,278.706,604.942,277.27,605.535z"/>
		<path class="st2" d="M298.372,605.53l-3.834,1.432c-1.344,0.503-1.981,1.783-1.454,2.918l2.542,5.47
			c0.496,1.066,1.871,1.672,3.222,1.419l3.548-0.665c1.572-0.294,2.515-1.623,2.054-2.898l-2.25-6.24
			C301.716,605.63,299.912,604.954,298.372,605.53z"/>
		<path class="st2" d="M237.808,646.904c0.669-0.763,12.835-15.709,17.479-20.84c2.074-2.288,9.995,2.52,8.539,5.131
			c-1.458,2.609-15.544,20.176-19.155,20.771C241.059,652.56,235.518,649.518,237.808,646.904z"/>
		<path class="st2" d="M258.756,634.11c2.071,1.216,38.733-2.158,40.753,1.778c5.674,11.045-40.589,40.052-58.061,42.732
			c-3.746,0-9.076-9.888-7.269-11.231c1.807-1.342,44.164-17.672,49.411-26.945l-32.954,1.4L258.756,634.11z"/>
		<path class="st2" d="M261.647,644.922c16.015,9.604,47.678,21.956,58.87,22.525c6.78,0.343-7.267,11.27-12.133,11.172
			c-8.429-0.169-46.808-19.935-53.096-24.869C249,648.821,261.647,644.922,261.647,644.922z"/>
		<path class="st2" d="M350.639,601.838c-2.861,0-5.1,2.454-4.86,5.305c2.486,29.38,12.06,53.728,20.115,53.297
			c8.532-0.456,22.186-9.346,18.773-16.849c-3.413-7.5-9.388,10.916-13.654,0c-3.317-8.485-7.15-29.014-8.691-37.73
			c-0.412-2.329-2.437-4.023-4.801-4.023H350.639z"/>
		<path class="st2" d="M408.725,602.911c-2.418,0.544-3.898,2.994-3.256,5.387c5.146,19.193,5.874,26.259,7.234,26.937
			c1.462,0.731,13.145-0.561,13.145-2.653c0-2.091-4.382-29.463-6.571-30.745C417.938,601.055,412.642,602.034,408.725,602.911z"/>
		<path class="st2" d="M458.964,615.719c-6.146,0-9.704-1.069-9.859-7.213c-0.076-3.06,0.64-5.733,2.754-6.912
			c4.729-2.635,52.473-5.173,57.602-0.63c5.129,4.546,4.254,60.574-10.108,59.937c-14.365-0.638-13.063-3.72-6.998-9.947
			c9.234-9.482,5.414-37.498,5.414-37.498L458.964,615.719z"/>
		<path class="st2" d="M478.716,584.7c-2.925,0.326-5.271,2.557-5.745,5.46c-2.341,14.375-8.794,48.558-8.292,51.816
			c0.623,4.034,12.198,7.275,12.858,3.136c0.657-4.141,15.628-54.584,12.335-57.009C487.983,586.71,482.569,584.273,478.716,584.7z"
			/>
		<path class="st2" d="M528.146,596.307c-3.447,0.588-5.502,4.156-4.291,7.436c3.776,10.234,7.544,27.85,9.643,27.046
			c2.633-1.011,13.166,1.169,12.509-4.86c-0.66-6.026-3.953-28.168-7.243-29.936C537.051,595.073,532.304,595.593,528.146,596.307z"
			/>
		<path class="st2" d="M622.562,626.186c-3.068-0.277-9.275-0.73-16.67-0.706c-0.142-17.052-1.069-36.282-1.375-42.232
			c-0.054-1.042-0.913-1.854-1.954-1.854H589.51c-1.148,0-2.05,0.978-1.952,2.122c0.549,6.462,2.131,26.464,2.131,42.899
			c-5.198,0.632-10.339,1.645-14.912,3.214c-19.675,6.752-23.191,27.425-6.375,37.316c16.817,9.89,34.291-0.444,36.613-16.591
			c0.399-2.783,0.645-6.656,0.775-11.158c6.887,0.157,13.048,0.726,16.333,1.079c1.339,0.145,2.503-0.905,2.503-2.253v-9.577
			C624.626,627.27,623.731,626.291,622.562,626.186z M589.688,647.674c0,12.479-18.278,16.044-17.094,1.986
			c0.498-5.936,7.966-8.694,17.094-9.824C589.688,643.133,589.688,645.847,589.688,647.674z"/>
		<path class="st2" d="M599.238,599.104c1.348-0.863,18.219-2.27,24.621-2.775c1.316-0.106,2.441,0.937,2.441,2.258v8.059
			c0,1.155-0.868,2.123-2.012,2.253l-25.05,2.814V599.104z"/>
		<path class="st2" d="M663.371,633.87c2.822-30.763,2.93-43.556,7.9-49.099c7.782-8.68,22.194-5.652,15.733,12.462
			c-6.462,18.117-11.072,37.949-17.162,40.516C663.754,640.319,663.371,633.87,663.371,633.87z"/>
		<path class="st2" d="M661.109,661.176c-5.84-0.206-6.542-4.649-4.816-8.711c2.07-4.882,7.633-9.216,11.992-5.034
			C676.273,655.102,666.751,661.374,661.109,661.176z"/>
		<path class="st4" d="M89.046,281.06c4.87,21.919,27.904,46.658,36.833,49.904c-3.246,4.871-24.839,10.385-31.333,29.056
			c-6.495,18.673-7.937,17.643-7.937,17.643s-7.306-27.603-23.54-34.909c-16.236-7.304-17.861-11.365-8.931-15.422
			c8.931-4.06,21.919-13.801,25.979-24.354C84.174,292.425,89.046,281.06,89.046,281.06z"/>
		<path class="st2" d="M47.603,333.227c3.732-0.929,9.65-3.491,15.277-7.329c5.671-3.756,10.692-9.098,13.534-13.016
			c1.493-1.976,3.053-4.23,4.796-6.806c1.76-2.619,3.52-5.566,4.984-8.635c3.021-6.103,4.501-12.752,4.391-16.751
			c0.009-0.834-0.071-2.501-0.446-3.892c-0.417-1.397-1.069-2.489-2.069-2.319c-1.945-0.377-3.007,3.903-3.609,5.235
			c-1.141,3.297-2.994,8.603-5.943,13.764c-1.44,2.589-3.092,5.159-4.747,7.512c-1.687,2.38-3.325,4.717-4.607,6.406
			c-2.565,3.513-6.62,7.907-11.357,11.507c-4.683,3.64-9.776,6.63-12.782,8.681c-1.214,0.913-5.073,3.371-3.997,5.093
			C41.381,334.654,46.049,333.685,47.603,333.227z"/>
		<path class="st2" d="M89.669,384.813c0.032-3.788-0.92-10.069-3.101-16.319c-2.114-6.274-5.566-12.335-8.382-16.253
			c-2.785-3.939-7.461-9.152-12.784-13.134c-5.284-4.043-11.04-6.816-14.671-7.922c-1.545-0.451-6.117-1.56-6.505,0.427
			c-1.081,1.696,2.574,4.246,3.742,5.124c2.8,2.175,7.608,5.261,12.009,9.096c4.443,3.783,8.405,8.297,10.822,11.71
			c2.435,3.398,5.472,8.591,7.691,14.019c2.278,5.402,3.825,10.931,5.061,14.265c0.52,1.378,1.885,5.629,3.825,5.078
			C89.382,391.1,89.664,386.412,89.669,384.813z"/>
		<path class="st2" d="M125.04,324.859c-2.797-1.432-7.345-3.684-11.452-6.924c-4.11-3.167-7.807-7.308-9.748-10.376
			c-2.111-3.074-4.595-8.125-6.551-13.212c-1.967-5.097-3.362-10.184-4.389-13.242c-0.501-1.258-1.535-5.147-3.482-4.813
			c-2.023-0.358-2.65,4.08-2.672,5.588c-0.242,3.589,0.566,9.457,2.371,15.275c1.797,5.823,4.543,11.607,7.147,15.426
			c2.538,3.965,6.983,8.815,12.274,12.367c5.242,3.585,11.148,5.59,14.804,5.877c0.757,0.09,2.287,0.171,3.596-0.059
			c1.324-0.272,2.386-0.81,2.349-1.819C129.846,327.051,126.154,325.571,125.04,324.859z"/>
		<path class="st2" d="M123.455,329.285c-4.252,0.584-10.874,3.538-16.636,8.049c-5.828,4.456-10.594,10.401-13.391,14.804
			c-2.886,4.352-6.372,11.06-8.272,18.014c-2.011,6.924-2.474,13.887-2.14,18.006c0.194,1.75,0.978,6.818,2.957,6.323
			c1.983,0.323,2.888-4.398,3.231-5.926c0.974-3.702,2.065-9.785,4.19-15.8c2.03-6.043,5.141-11.867,7.654-15.659
			c2.442-3.844,6.509-9.005,11.252-13.083c4.697-4.121,9.9-7.198,13.181-8.866c0.654-0.453,2.027-1.118,3.185-1.883
			c1.142-0.792,2.077-1.753,1.704-2.68c0.022-1.022-1.221-1.444-2.753-1.572C126.08,328.853,124.305,329.054,123.455,329.285z"/>
		<path class="st2" d="M94.852,256.033c0,2.69-2.179,4.87-4.867,4.87c-2.689,0-4.869-2.18-4.869-4.87
			c0-2.687,2.18-4.867,4.869-4.867C92.672,251.166,94.852,253.345,94.852,256.033z"/>
		<path class="st2" d="M91.968,409.274c0,2.69-2.179,4.869-4.869,4.869c-2.687,0-4.867-2.179-4.867-4.869
			c0-2.687,2.18-4.867,4.867-4.867C89.789,404.408,91.968,406.587,91.968,409.274z"/>
		<path class="st2" d="M31.753,332.475c0,2.687-2.18,4.867-4.867,4.867c-2.69,0-4.869-2.18-4.869-4.867
			c0-2.689,2.18-4.87,4.869-4.87C29.573,327.605,31.753,329.785,31.753,332.475z"/>
		<path class="st2" d="M152.903,329.589c0,2.689-2.18,4.869-4.867,4.869c-2.689,0-4.867-2.18-4.867-4.869
			c0-2.687,2.177-4.867,4.867-4.867C150.723,324.722,152.903,326.902,152.903,329.589z"/>
		<path class="st4" d="M690.209,129.903c4.871,21.919,27.906,46.658,36.836,49.903c-3.246,4.872-24.842,10.386-31.334,29.057
			c-6.495,18.673-7.937,17.643-7.937,17.643s-7.306-27.602-23.542-34.909c-16.236-7.304-17.859-11.364-8.929-15.422
			c8.929-4.06,21.919-13.801,25.976-24.354C685.339,141.267,690.209,129.903,690.209,129.903z"/>
		<path class="st2" d="M648.769,182.07c3.731-0.93,9.65-3.491,15.277-7.329c5.671-3.757,10.692-9.099,13.534-13.017
			c1.493-1.975,3.052-4.229,4.795-6.806c1.76-2.618,3.521-5.565,4.984-8.635c3.021-6.102,4.502-12.752,4.391-16.751
			c0.01-0.833-0.071-2.5-0.446-3.891c-0.417-1.398-1.069-2.489-2.069-2.32c-1.944-0.377-3.006,3.903-3.609,5.235
			c-1.14,3.298-2.994,8.604-5.943,13.764c-1.439,2.589-3.092,5.158-4.747,7.512c-1.687,2.38-3.325,4.718-4.607,6.407
			c-2.565,3.513-6.619,7.907-11.357,11.506c-4.683,3.641-9.775,6.63-12.781,8.682c-1.213,0.912-5.072,3.371-3.996,5.093
			C642.547,183.497,647.215,182.528,648.769,182.07z"/>
		<path class="st2" d="M690.834,233.656c0.032-3.789-0.919-10.07-3.101-16.319c-2.113-6.274-5.565-12.335-8.382-16.253
			c-2.785-3.94-7.461-9.153-12.784-13.134c-5.283-4.043-11.041-6.816-14.672-7.922c-1.545-0.451-6.117-1.559-6.504,0.427
			c-1.082,1.697,2.574,4.247,3.741,5.124c2.8,2.175,7.608,5.262,12.009,9.096c4.442,3.783,8.404,8.297,10.822,11.71
			c2.435,3.398,5.472,8.591,7.691,14.02c2.278,5.401,3.825,10.93,5.06,14.264c0.52,1.378,1.886,5.629,3.825,5.078
			C690.547,239.942,690.829,235.254,690.834,233.656z"/>
		<path class="st2" d="M726.206,173.702c-2.798-1.432-7.346-3.685-11.452-6.924c-4.11-3.168-7.807-7.309-9.748-10.376
			c-2.111-3.075-4.594-8.125-6.551-13.213c-1.966-5.097-3.361-10.184-4.389-13.242c-0.5-1.258-1.535-5.146-3.481-4.813
			c-2.023-0.358-2.65,4.08-2.673,5.588c-0.242,3.589,0.567,9.456,2.371,15.274c1.797,5.823,4.543,11.607,7.147,15.427
			c2.537,3.964,6.983,8.814,12.273,12.367c5.242,3.585,11.149,5.59,14.804,5.877c0.758,0.091,2.288,0.172,3.597-0.059
			c1.324-0.272,2.385-0.809,2.348-1.819C731.012,175.894,727.319,174.413,726.206,173.702z"/>
		<path class="st2" d="M724.62,178.128c-4.252,0.583-10.873,3.538-16.635,8.049c-5.828,4.455-10.594,10.4-13.392,14.804
			c-2.886,4.352-6.372,11.06-8.273,18.013c-2.01,6.924-2.474,13.887-2.14,18.006c0.194,1.75,0.978,6.819,2.957,6.323
			c1.983,0.324,2.888-4.398,3.232-5.926c0.973-3.702,2.064-9.785,4.19-15.799c2.031-6.044,5.141-11.867,7.655-15.66
			c2.442-3.844,6.509-9.005,11.251-13.083c4.698-4.121,9.901-7.198,13.181-8.866c0.655-0.454,2.028-1.118,3.185-1.883
			c1.142-0.792,2.076-1.753,1.703-2.679c0.023-1.022-1.221-1.444-2.753-1.572C727.246,177.696,725.47,177.897,724.62,178.128z"/>
		<path class="st2" d="M696.017,104.876c0,2.689-2.18,4.869-4.867,4.869c-2.69,0-4.87-2.179-4.87-4.869
			c0-2.687,2.18-4.867,4.87-4.867C693.838,100.009,696.017,102.188,696.017,104.876z"/>
		<path class="st2" d="M693.132,258.117c0,2.69-2.177,4.869-4.867,4.869c-2.687,0-4.867-2.18-4.867-4.869
			c0-2.687,2.18-4.867,4.867-4.867C690.955,253.25,693.132,255.43,693.132,258.117z"/>
		<path class="st2" d="M632.918,181.317c0,2.687-2.18,4.867-4.867,4.867c-2.69,0-4.87-2.18-4.87-4.867
			c0-2.689,2.18-4.869,4.87-4.869C630.739,176.448,632.918,178.628,632.918,181.317z"/>
		<path class="st2" d="M754.068,178.431c0,2.689-2.18,4.869-4.867,4.869c-2.69,0-4.869-2.18-4.869-4.869
			c0-2.687,2.18-4.867,4.869-4.867C751.888,173.565,754.068,175.744,754.068,178.431z"/>
		<path class="st4" d="M615.994,362.004c4.033,18.148,23.106,38.633,30.498,41.32c-2.687,4.033-20.568,8.598-25.945,24.059
			c-5.377,15.459-6.571,14.608-6.571,14.608s-6.048-22.853-19.492-28.904c-13.443-6.049-14.787-9.41-7.395-12.772
			c7.395-3.359,18.148-11.425,21.51-20.163C611.96,371.414,615.994,362.004,615.994,362.004z"/>
		<path class="st2" d="M581.678,405.197c3.09-0.77,7.993-2.89,12.649-6.065c4.698-3.112,8.856-7.534,11.208-10.778
			c1.236-1.638,2.527-3.504,3.971-5.637c1.456-2.167,2.915-4.607,4.126-7.149c2.504-5.053,3.727-10.558,3.637-13.87
			c0.088-1.403-0.405-5.465-2.081-5.145c-1.611-0.311-2.491,3.234-2.989,4.335c-0.944,2.732-2.478,7.126-4.923,11.398
			c-1.189,2.146-2.557,4.271-3.928,6.218c-1.397,1.974-2.753,3.909-3.815,5.308c-2.124,2.908-5.48,6.546-9.405,9.525
			c-3.877,3.015-8.094,5.49-10.581,7.188c-1.006,0.755-4.201,2.793-3.31,4.217C576.527,406.381,580.394,405.577,581.678,405.197z"/>
		<path class="st2" d="M616.508,447.91c0.03-3.136-0.76-8.336-2.567-13.512c-1.75-5.193-4.609-10.212-6.941-13.455
			c-2.307-3.263-6.176-7.578-10.584-10.876c-4.374-3.347-9.143-5.644-12.147-6.561c-1.28-0.37-5.065-1.29-5.388,0.355
			c-0.893,1.405,2.133,3.516,3.099,4.245c2.319,1.799,6.299,4.354,9.944,7.529c3.677,3.134,6.958,6.87,8.961,9.695
			c2.012,2.814,4.528,7.115,6.367,11.609c1.885,4.472,3.168,9.052,4.19,11.81c0.429,1.142,1.559,4.663,3.165,4.204
			C616.273,453.114,616.506,449.233,616.508,447.91z"/>
		<path class="st2" d="M645.797,398.271c-2.314-1.186-6.08-3.052-9.481-5.734c-3.403-2.624-6.466-6.051-8.074-8.591
			c-1.746-2.545-3.803-6.728-5.423-10.94c-1.628-4.219-2.783-8.432-3.633-10.964c-0.415-1.042-1.273-4.261-2.883-3.984
			c-1.675-0.299-2.194,3.378-2.212,4.627c-0.204,2.971,0.468,7.828,1.961,12.647c1.488,4.822,3.761,9.611,5.919,12.774
			c2.101,3.283,5.781,7.297,10.163,10.239c4.339,2.969,9.23,4.629,12.257,4.867c1.269,0.216,5.026,0.142,4.923-1.557
			C649.776,400.083,646.719,398.859,645.797,398.271z"/>
		<path class="st2" d="M644.483,401.934c-3.52,0.483-9.003,2.927-13.774,6.664c-4.825,3.69-8.77,8.613-11.087,12.257
			c-2.388,3.604-5.276,9.16-6.85,14.916c-1.662,5.734-2.048,11.499-1.773,14.909c0.162,1.449,0.809,5.644,2.449,5.237
			c1.643,0.265,2.391-3.643,2.675-4.908c0.807-3.067,1.709-8.101,3.472-13.083c1.68-5.004,4.254-9.824,6.335-12.965
			c2.023-3.182,5.392-7.456,9.317-10.832c3.891-3.413,8.199-5.96,10.916-7.344c1.049-0.752,4.634-2.172,4.045-3.775
			C650.311,401.358,645.917,401.526,644.483,401.934z"/>
		<path class="st2" d="M620.801,341.282c0,2.226-1.805,4.03-4.031,4.03c-2.226,0-4.03-1.805-4.03-4.03
			c0-2.227,1.805-4.031,4.03-4.031C618.997,337.25,620.801,339.055,620.801,341.282z"/>
		<path class="st2" d="M618.413,468.166c0,2.223-1.805,4.028-4.03,4.028c-2.227,0-4.031-1.805-4.031-4.028
			c0-2.227,1.805-4.031,4.031-4.031C616.609,464.135,618.413,465.94,618.413,468.166z"/>
		<path class="st2" d="M568.556,404.575c0,2.226-1.805,4.03-4.03,4.03c-2.227,0-4.031-1.804-4.031-4.03
			c0-2.227,1.805-4.031,4.031-4.031C566.752,400.543,568.556,402.348,568.556,404.575z"/>
		<path class="st2" d="M668.869,402.186c0,2.226-1.805,4.03-4.031,4.03c-2.226,0-4.03-1.805-4.03-4.03
			c0-2.227,1.805-4.031,4.03-4.031C667.064,398.155,668.869,399.96,668.869,402.186z"/>
	</g>
</g>
</svg>
